<svg id="Layer_1" data-name="Layer 1" xmlns="http://www.w3.org/2000/svg" viewBox="0 0 1000 1000"><title>handle-3</title><path d="M293.31,392.15c19.87,1.18,33.74,10.1,42.67,27,7.09,13.41,13.17,27.41,20.49,40.68,1.77,3.22,6.63,6.52,10.09,6.54q133.5.53,267,0c3.44,0,8.27-3.37,10-6.6C651,446.44,657,432.44,664.13,419c8.93-16.84,22.78-25.76,42.61-26.81,0,10,.15,19-.14,28-.06,1.69-1.74,3.49-3,4.93-5.46,6.19-12.71,11.36-16.32,18.54q-37,73.5-72.63,147.75c-13.15,27.26-33.89,40.75-63.07,40.7q-51.54-.09-103.08,0c-29.18.05-50-13.4-63.06-40.72-23.21-48.61-46.49-97.2-70.57-145.35-4.06-8.12-12.31-13.95-18.52-20.95-1.26-1.42-2.84-3.3-2.89-5C293.16,411.13,293.31,402.1,293.31,392.15ZM624.91,499.7H376.62c.6,2.27.74,3.7,1.34,4.89,13.18,26.5,26.2,53.09,39.77,79.38,4.75,9.22,13,14.75,23.17,14.84,39.25.36,78.53.85,117.75-.36,7.55-.24,18.05-6,21.78-12.54C596.08,558.45,609.67,529.72,624.91,499.7Z"/><path d="M275.59,449.05H261.81c-.46-5.1-.87-9.73-1.41-15.73H247.89q-88.33,0-176.66,0c-15.2,0-17.13-2-17.15-17.42C54,381,51.27,383.76,84.35,383.78q82,.06,164,0h12c.45-5.43.83-10,1.3-15.61h13.9Z"/><path d="M723.89,367.82H738.2c.43,5,.82,9.66,1.35,16H928.26c16.47,0,17.7,1.32,17.73,18.88,0,5.11,0,10.21,0,15.32-.15,12.66-2.53,15.25-15,15.27q-89.4.11-178.79.05H739.67c-.58,6-1,10.59-1.51,15.72H723.89Z"/></svg>