<svg id="Layer_1" data-name="Layer 1" xmlns="http://www.w3.org/2000/svg" viewBox="0 0 1000 1000"><title>handle-1</title><path d="M754.36,568.72c-18.82-11-36.57-22.71-55.55-31.91-17.48-8.48-36.83-7.66-55.38-2.95-22.65,5.75-44.92,13-67.47,19.23-17.52,4.83-29.51-3-31.08-19.68-1.08-11.36,3.57-20,14.56-23.17,29.37-8.54,58.71-17.43,88.51-24.2,38.9-8.84,73.41,3.43,104.67,26.41,11.2,8.24,22,17.09,34.57,26.95Z"/><path d="M248.39,569.88l-33.77-31.15C246.08,509.51,280,486.37,323.5,484c14.84-.81,30.26,1.88,44.84,5.36,23.73,5.66,47.05,13.07,70.42,20.16,13.42,4.08,20.37,16.93,16.46,29-4.31,13.26-16,18.46-30.65,14.23-22-6.35-44.12-12.56-66.29-18.43-38.49-10.19-70.72,2.87-99.73,27.45C255.44,564.36,252.19,566.83,248.39,569.88Z"/><path d="M253.15,584.15c-6.42,5.32-12,13.59-18.49,14.35-7.6.89-10.79,5.46-14.52,9.32-16,16.59-31.74,33.57-46.81,51.06-4.86,5.65-7,13.55-11.1,20-4.51,7-9.68,7.12-15.9,1-11.48-11.37-23.75-21.94-35.27-33.26-3.39-3.33-8.54-9.93-7.43-11.82,3.65-6.2,9.43-11.37,15.12-16.06,4.39-3.62,10.85-5,14.69-9C149,593.51,164.14,577,178.71,560c4.42-5.16,5.89-12.73,9.74-18.5,5.35-8,11.45-9.31,19.26-1.61,12.2,12,25.38,23,38,34.64C247.87,576.45,249.35,579.13,253.15,584.15Z"/><path d="M748.5,581.64c16-15.49,31.81-31.08,48.13-46.11,1.72-1.58,8.09-1.19,9.54.56,4.6,5.6,13.62,8.57,11.32,19.11-.6,2.76,4.73,7.09,7.75,10.3,15.13,16.1,30.06,32.43,45.81,47.91,5.88,5.78,14.06,9.16,20.75,14.22,7,5.31,6.83,10.68-.13,16.78-13.19,11.58-25.93,23.67-38.56,35.87-5.39,5.2-10.21,5.86-14.47-.49-5.56-8.3-9.48-17.92-15.95-25.36-15.84-18.18-32-36.29-49.65-52.59-5.71-5.25-15.46-6.62-20.4-14.26C751.74,586.18,750.74,584.85,748.5,581.64Z"/><path d="M501.06,486.13a85.25,85.25,0,1,1,85.22-85.56A85.09,85.09,0,0,1,501.06,486.13Zm-67.77-85a67.85,67.85,0,0,0,67.62,67.75c37.6,0,68-30.76,67.73-68.71a67.68,67.68,0,0,0-135.35,1Z"/><path d="M425.5,493c6-5.76,10.15-9.69,14.89-14.22,18.22,12.69,38,20.3,60.42,20.36s42.38-7.38,61.15-21.05l14.19,13.2c-5.45,1.8-9.45,3.68-13.65,4.41-32.36,5.63-43.27,44.35-15.58,66.72-31.3,11.14-61.47,10.53-92.85-.54,13.8-12.49,19.16-27,12.27-43.91S444.09,495.89,425.5,493Z"/><path d="M812.28,509.51l-21.46,24.2-34-29.64c15.41-15.59,30.15-30.53,49.92-38.63,5.41-2.21,13.19-2.61,18.18-.24,2.62,1.24,1.49,10.26,2.21,15.75.33,2.53.22,5.74,1.69,7.41,23.87,27,51.1,49.79,83.71,66.3,1.62-2,2.77-3.73,4.14-5.19,6.29-6.74,15.38-7.94,22.33-3a16.43,16.43,0,0,1,5,21.13c-4.22,8-13,10.5-22.17,7.08C886.06,561.31,854.4,540.75,824,518,820.42,515.37,816.79,512.79,812.28,509.51ZM817,485.78c-5.62-3.46-8.78-6.93-11.75-6.77-2.48.13-7,4.94-6.6,6.86.63,3,4.38,7.18,7.21,7.52C808.5,493.7,811.65,489.66,817,485.78Z"/><path d="M244.39,503.29l-34.87,29.92L187.47,509.9c-10.87,7.79-20.89,16.3-32.1,22.72-25,14.33-50.46,27.82-76,41.2-9.6,5-18.63,2.27-23.22-5.79a16.38,16.38,0,0,1,5.22-21.87c7.7-5,16.42-3,23.44,5.37.65.78,1.3,1.54,3,3.56,10-6.2,20.85-11.51,30-19,17.3-14.08,33.87-29.12,50.11-44.42,2.94-2.77,4.43-8.92,3.91-13.18-1.68-13.7,3.86-19.24,17.06-14.92a51.43,51.43,0,0,1,14.33,7.82C216.67,481.47,229.78,491.93,244.39,503.29ZM206,485.79c-5.1-3.58-8.37-7.63-11-7.26-3.06.42-5.58,4.74-8.33,7.38,2.91,2.85,5.45,7.21,8.85,8C197.71,494.47,201.15,489.78,206,485.79Z"/><path d="M675.4,420.15c36.76,2.16,68.05,15.74,95,39.56,2.92,2.58,5.27,10,3.68,12.65-3.83,6.4-9.22,2.87-13.77-1C734,448.69,704,435.73,668.73,437.57,641,439,617.68,450.46,598.06,469.83c-2,1.94-3.48,4.95-5.79,5.74-3.65,1.24-7.79,1-11.72,1.42.19-4-1.21-9.31.82-11.75,14.39-17.27,32.34-30.1,53.88-36.68C648.27,424.59,662,422.88,675.4,420.15Z"/><path d="M413.76,469.55c.24,7.46-5.23,11.32-10.47,8.79-2.07-1-3.77-2.93-5.45-4.62C356,431.4,299.6,425.43,249.32,458.12c-6.91,4.49-13.23,10-20.4,13.94-2.7,1.49-7.06-.05-10.67-.21.5-3.62-.38-8.76,1.7-10.66,54.92-50.05,136-55.5,188.79,1.33A54.77,54.77,0,0,1,413.76,469.55Z"/><path d="M440.15,396.62l6-22c4.82,2.65,8.26,5.06,12.06,6.44,2.07.75,4.77-.23,7.18-.43-.86-2.24-1.1-5.19-2.69-6.58-3.06-2.66-6.88-4.44-11.82-7.46l15.57-16.28c2.82,4.76,4.64,8.69,7.29,11.94,1.41,1.74,4.25,2.33,6.44,3.43.29-2.68,1.41-5.62.68-8-1.09-3.51-3.48-6.61-6.21-11.46l21.79-6.11c0,6-.51,10.11.2,14,.4,2.16,2.84,3.95,4.35,5.91,1.47-2,3.78-3.88,4.22-6.1.7-3.63.19-7.5.19-13.32l21.8,5.12c-2.93,5.5-5.54,9.56-7.21,14-.59,1.55,1.13,4,1.8,6,1.77-.62,4.21-.73,5.17-2,2.72-3.51,4.84-7.49,8.87-14l13.72,17.56c-3.07,1.89-6.85,3.58-9.74,6.23-1.79,1.64-2.23,4.75-3.28,7.2,2.43.12,5.14,1,7.24.21,3.81-1.4,7.25-3.78,12-6.39,1.9,7.22,3.59,13.68,5.58,21.22-4.43.33-7.49.11-10.29.89-3.21.88-6.18,2.64-9.26,4,2.93,1.56,5.72,3.61,8.84,4.53,2.83.84,6,.46,9,.61.81,22.31-16.42,44.6-40,52.28-25.42,8.29-52.23-.66-68-23.37,2.87-1.76,6.11-3.07,8.39-5.34s3.53-5.46,5.24-8.25c-3.06.17-6.27-.19-9.12.66-3.13.94-5.93,3-10.14,5.22l-5.59-21c4-.27,6.74,0,9.26-.74A98.8,98.8,0,0,0,460,401.26c-3.58-1.54-7.08-3.4-10.79-4.53C447.11,396.09,444.62,396.62,440.15,396.62Zm73.16-38.57c-8.11,10.81-11.61,23.52-25.19,30.15-8.38,4.09-7.74,17.2-1.43,24.7a18.23,18.23,0,0,0,24.15,3.84c8.24-5.28,12-16.44,6.27-24.23-5.09-6.92-5.12-13.69-4.46-21.23C513,366.88,513.1,362.46,513.31,358.05Z"/></svg>