<svg id="Layer_1" data-name="Layer 1" xmlns="http://www.w3.org/2000/svg" viewBox="0 0 1000 1000"><title>spoke-1</title><path d="M925.62,169c-.75-16.21-6.79-20.11-22-18.68-52.06,4.89-104.23,6.86-156.53,3.37-58-3.87-57.74-3.61-57.13,55.13.15,14.57.94,26.67,17.31,22-25,24.24-47.81,48.59-69.51,73.92-11.12,13-26.66,12.27-40.4,14.18-11.23,1.56-9.22-13.05-13.06-20.39-5.3-10.13-12.13-7-18.24-2.26-11.59,8.92-19.8,7.61-26-6-6.52-14.38-14.93-11.89-23.47-1.82-8.26,9.74-15.86,9.29-23.5-.73-9.7-12.72-18.08-10.63-24.82,2.77-5.9,11.75-13.58,12-23.16,4.46-11-8.69-19.1-7.11-22.52,7.36-3.15,13.29-10.39,17.05-22.65,10.62-13.76-7.22-21.36,1-20.81,12.49.9,18.69-8.09,20.81-22.66,18.95-8.61-1.1-15.46,1-12.35,11.86,4.16,14.55-1.37,20.76-16,21.33-13.06.5-17.43,7.74-11.47,19.31,7.2,13.95,1.92,20.28-11.73,24-13.24,3.59-14.05,11.72-5.65,21.37,8.89,10.21,8.09,18.14-4.35,24.59s-14.33,14.57-2.33,23.43c10.85,8,12,15.86,1.28,25-11,9.32-9.86,17.38,3.45,23.27,10.54,4.67,16,11.16,7.77,22.13-10.52,14.08-5.5,21.54,10.15,24.37,11.91,2.15,13.53,8.37,10.3,19.29-3,10.19-6.63,19-14.42,26.83-38.93,38.9-76.83,78.85-116.3,117.18-7.22,7-12.57,16.18-20.26,22.8l-10.12,6.23-.31.14c-9.54-15-25-7.77-37.65-9-52-5.18-52-4.64-52.94,46.89-.55,30.07-.36,31.85,28.62,28.75,37.28-4,74.66-1.14,111.89-2.46,23.72-.84,49.47,4.27,74.2,7.57,6.33.85,15.48,3,17.73-4.89,6.11-21.64,5.56-44.32,2.78-66.18-2-15.51-20.23-4.65-31.74-12.13L381.26,663.36l-1.75-.29.95-.48,1,.31c7.91-3.76,10.58,0,11.36,7.44,1.57,15.1,7.77,22.52,23.19,12.9,11.91-7.43,17.49-1.5,21.26,9.54,4.46,13,12,16.57,22.75,6.06,10-9.7,17.91-8.12,25,3.5,6.5,10.68,14.44,13.06,22.2,1.44,8-11.94,16-14.11,26.59-3,9.22,9.68,17.23,7.63,21.68-4.69,5.2-14.4,13.42-15.79,25.56-8.09s18.14,1.48,19.62-10.49c1.66-13.44,7.54-18.64,21-13.69,13.9,5.13,20-.61,18.59-14.7-1.34-13.56,4.23-19.43,17.86-18.07,15.66,1.57,18.24-7.16,13.57-19.32-5-12.88.78-18.3,12.31-20,16.06-2.36,18.34-10.28,9.91-22.84-7.51-11.19-3.05-18,7.94-22.28q20.38-8,4.85-23.12c-8.41-8.19-10.68-16,.54-23.6,14.34-9.69,12.44-18.21-1.58-26.31-10.22-5.91-10.18-13.34-2.7-21.75,10.8-12.13,5.48-19.64-7.4-24.82-7.4-3-14.86-7.16-9.36-16.26,12.67-20.93.26-26.85-21.72-28.86,44.88-45.54,86.63-87.7,128.07-130.17,4.45-4.57,10.88-7.9,13.3-14.18l.1,0,0-.34a13.94,13.94,0,0,0,.87-4.34,2.87,2.87,0,0,1-.31.05l.45-3.39,1.1.19c19.76-8.62,40-2.38,60-1.61C928.93,230.4,928.44,230.56,925.62,169Zm-598.47,263c-.8-.69-2.23-1.36-2.25-2.08,0-1.18.84-2.38,1.34-3.58l2.48,2.07Zm17,76.68c-7.36-.8-11.58-6-11.43-13.63.18-8.88,5.34-13,13.77-13.18,8.7,1.26,13.9,5.93,12.91,14.64C358.49,504.87,352.57,509.53,344.19,508.62ZM380,558.94c-3.89,4.84-7.27,15.51-16.26,10.81-5.35-2.8-7.45-10.85-7.61-17.76-.21-9.12,4.16-16.19,12.55-19,6.12-2.06,13.11-1.91,19.73-2,13.89-.27,27.79-.08,41.69-.08C408.83,533.88,393,542.76,380,558.94Zm71.94,77.53c-12.14,5.86-20.88-1.23-30.75-7.5,13.29-19.61,38.64-29.2,42.55-55.54,0,11.51-.09,23,0,34.54C463.86,619.19,464.29,630.51,451.93,636.47ZM463.6,409.59c.06,50.21.06,50.21-50.71,50.18-11.12,0-22.27.5-33.36-.14-21.41-1.22-29.51-13.49-20.7-32.72,15.39-33.59,40.39-58.33,73.85-73.88,16.51-7.68,29.52.49,30.75,18.75C464.28,384.33,463.6,397,463.6,409.59Zm171.08,4.94c7.39,11.44,15.42,21.42,8,33.69-11.9,19.67-31.89,8.22-51.59,13C604.75,441.91,619.54,428.65,634.68,414.53ZM535.17,383.9c.21-35.77,11.25-42.12,49.87-22l-49.19,42.62h-.16C531.25,398,535.14,390.76,535.17,383.9Zm-3.46,18.3,3.47,2.29-4.15-.36C531.26,403.49,531.48,402.84,531.71,402.2Zm-31.46-74.14c6.94.35,12.39,4.47,12.64,12.59.28,9-4.68,13.26-12.66,14.31-9.07-.59-14.49-4.91-14.32-13.72S492,327.64,500.25,328.06Zm-2.08,333.8C490.75,661.2,486,656.57,486,649c.06-8.54,5.16-13.75,13.68-13.73,8.75,0,12.8,5.67,13.2,14.25C511.74,658,506.83,662.63,498.17,661.86ZM641.91,561.62C626.1,595.85,600.47,621,566.2,636.56c-16.5,7.5-29.29-.95-31.09-19.17-.65-6.61-.16-13.33-.18-20,0-5.93,0-11.86,0-17.78,0-48.78,0-48.79,49.88-48.78,12.6,0,25.23-.61,37.77.25C641,532.34,649.48,545.22,641.91,561.62ZM666.72,495c-1.41,9.08-5.84,14.41-14.65,13.75s-12.86-6.82-12.2-15.11c.6-7.43,5.35-12,13.16-11.92C662.08,481.78,665.72,487.5,666.72,495Z"/></svg>