<svg id="Layer_1" data-name="Layer 1" xmlns="http://www.w3.org/2000/svg" viewBox="0 0 1000 1000"><title>spoke-3</title><path d="M681.58,369.22c-41,14.73-81.93,25.23-123.85,26-74.93,1.33-150.6,11.17-222.07-29.39-55.16-31.3-125.46-11.52-166.86,36.85A143.07,143.07,0,0,0,157,574c34.32,53.45,101.93,82.53,160.07,58.58,35.49-14.62,70.91-17.6,106.89-23.66,83.6-14.08,164.56-3,242.09,29.18,94.14,39.11,199.11-28.43,200-130.54C866.82,409.09,773.59,336.19,681.58,369.22ZM269.36,563.58a75.32,75.32,0,1,1,75.32-75.32A75.32,75.32,0,0,1,269.36,563.58Zm451.91,0a75.32,75.32,0,1,1,75.31-75.32A75.32,75.32,0,0,1,721.27,563.58Z"/></svg>