<svg id="Layer_1" data-name="Layer 1" xmlns="http://www.w3.org/2000/svg" viewBox="0 0 1000 1000"><title>spoke-2</title><path d="M871.28,525.79c-12.82-11.35-10.47-20.9,2.28-30.49,11-8.28,9.35-16.93-2-23.15-14.54-8-16.57-17.28-5.69-29.87,8.7-10.06,7-18.69-6-22.35-17.38-4.91-20.86-13.81-12.66-29.7,5.17-10,1.61-18.61-10.66-18.7-18-.14-24.39-7.67-20.42-25.18,3-13.24-3.32-19.32-16.25-16.44-16.69,3.72-23.24-2.55-23.35-19.14-.1-15.13-8.44-18.68-21.55-12.36-14.25,6.89-22.1,1.24-25.5-13-3.56-14.85-11.74-17.21-23.37-8.34s-20.69,9.05-27.7-5.59-16.1-15.52-26.25-2.78c-8.28,10.39-16.71,13.07-26.22,1.34-11-13.63-20.49-12.36-28,3.51-6.34,13.37-15.3,13-26,5.15-11-8.1-20.15-8.24-23.68,7.4s-11.64,20.76-27,14c-14.3-6.28-20.54.65-19.95,14.7.69,16.36-7.75,20.23-22,18.08-14.43-2.19-20.58,3.86-16.71,18.38s-1.41,22.57-16.62,23.44c-17.64,1-18.61,10.5-12.27,23.79,4.33,9.07,6.23,18.22-6.09,21.7-23.9,6.75-22.44,19.41-4.73,37.42-9.71.82-13.27,1.36-16.84,1.39-81.06.79-162.13,1.32-243.19,2.36-33.16.42-49.32,20.22-42.19,50.13,5.45,22.82,21.61,28.29,42.7,28.37,73.86.3,147.72.9,221.57,2.2,30.69.54,43.44,16.81,36.14,44.45-3.35,12.7,3.33,16.14,13.34,18,14.42,2.67,19.88,9.79,14.29,24.74-5,13.29.31,21,15.15,20.24,14.54-.76,22,4.53,20.42,20.37-1.35,13.2,2.85,21.67,18.53,16.2,27.19-9.49,20.37,16.76,29.07,27.08,12.33,14.61,29-19.89,41.8,2.61A69.6,69.6,0,0,1,577.3,723c6,14.22,14.92,14.44,24.8,4.51,11.38-11.44,20-8.51,28.19,3.56,8.31,12.24,17,12,25.13-.28,6.75-10.1,14-17.11,25.54-5.72,13.88,13.69,23.23,9.85,29.17-7.56,4.41-12.95,12.61-13.26,23.18-7,12.94,7.61,22.26,6.17,24.21-11,1.68-14.82,9-20.23,23.91-15.81,14,4.15,20.71-1.63,18.73-16.45s4.09-21.91,19.55-21C837,647.38,840.1,638,834.45,624s0-19.91,13.34-22.6c14.51-2.93,21-10.34,10.75-24.39-9.51-13-5.09-21.18,8.42-27S882.76,536,871.28,525.79ZM187.47,504.15c-3,15.72-16.31,20.67-30.79,19.4-15.72-1.38-21-12.56-19.24-26.79,1.89-15.63,12.72-20.28,26-19.38C179.58,480.06,190.58,487.67,187.47,504.15ZM521,364.7c9.88-.13,14.24,6,15.11,15.21-1.35,9.52-6.85,14.68-16.34,14.16-8.27-.45-13.36-5.71-13.47-13.91C506.14,370.84,511.2,364.83,521,364.7Zm-36.67,64.74c8.25-8.91,19.41-8.28,29-.85,9,7,17.26,14.85,25.85,22.34l-3.5,6.86c-14.13,0-28.53,1.65-42.3-.59-9-1.47-21.17,13.46-24.9-.86C466.55,449.11,477.12,437.18,484.29,429.44Zm51.57,192.81c-.89,9-7,13.73-16.68,13.78-8.47-1.88-13.8-7-12.88-16.42s7.15-14.35,16.08-13.62C531.46,606.73,536.75,613.19,535.86,622.25Zm-66-76.5c11-4.86,22.43-1.51,33.51-2,10.6-.5,21.25-.11,35.94-.11C502.24,588.82,491.24,588.66,469.85,545.75Zm292.22,90c-9.49-.25-14.58-6.59-14.38-15.35.22-8.93,6.15-15.07,15.33-14.49,8.63.55,14.42,5.85,14.58,15.86C776.3,630.4,771.45,636,762.07,635.77Zm-.45-271c9.91-.73,14.29,5.46,16.12,13.55-.9,10.2-5.84,15.61-15.49,15.62-8.41,0-13.77-4.83-14.36-12.92C747.22,371.89,751.84,365.5,761.62,364.79Zm3.45,68.55c16-14.62,31.8-10.47,40,9.65,7.52,18.42,10.4,37.91,9.88,57.85a140.17,140.17,0,0,1-10.33,57.77c-7.8,18.75-23.45,22.91-38.43,9.35-20.55-18.62-39.2-39.32-59.33-58.42-8.26-7.83-6.18-12.86.8-19.62C727,471.23,745.22,451.41,765.07,433.34ZM585.83,334.39c17.92-6.47,36.71-8.62,55.75-8.39,20-.11,39.6,2.46,58.06,10.2,20.07,8.41,24.18,24.35,9.51,40.37-18.21,19.89-38.34,38-56.77,57.69-8.64,9.24-14.13,7.07-21.71-.87-18-18.85-37.14-36.65-55-55.66C558.69,359.64,562.81,342.7,585.83,334.39ZM572.92,625.55c19.34-21.23,40.62-40.69,60.59-61.36,7.21-7.46,11.82-4.63,17.67,1.34,19.49,19.89,40,38.85,58.75,59.4,13.42,14.69,9.25,30.65-9.2,38.74-19.17,8.41-39.69,11.09-60.59,10.75-20,.45-39.58-2.35-58-10.13S559.38,640.41,572.92,625.55Z"/></svg>