<svg id="Layer_1" data-name="Layer 1" xmlns="http://www.w3.org/2000/svg" viewBox="0 0 1000 1000"><title>wheel-3</title><path d="M501.63,136c203.82.83,364,163.41,362.5,367.84C862.65,702.31,696.5,865.55,497.58,864c-203-1.6-363.24-165.35-361.71-369.73C137.38,293,298.55,135.18,501.63,136ZM497,771.22c151.59,1.59,273.14-116.73,275.92-268.6,2.74-149.07-118.77-274.89-268.35-277.87-150.57-3-278.68,122-279.82,273C223.63,647,345.68,769.63,497,771.22Z"/><path d="M245.16,497.27c.72-142.35,112.76-252.61,256.23-252.14C643,245.59,755.82,359.27,755.1,500.79,754.4,640.34,637.18,756,497.82,754.68,356.6,753.33,244.44,639.07,245.16,497.27Zm323-41.26,11.19,25c38.69-8.67,78-15.34,115.57-27.55,8.46-2.76,17.1-26.73,13.94-37.5-3.31-11.25-25.9-28.37-31.18-25.65C639.91,409.74,604.4,433.57,568.17,456Zm-139.39,86.2Q424.36,530.11,420,518c-35.47,6.76-71.18,12.46-106.32,20.63-25.44,5.91-39.88,24.66-22.34,46.84,9.2,11.64,37.64,20.53,50,14.78C372.69,585.69,399.9,562.16,428.78,542.21Zm-129.16-171c-4.82,35.6-14.95,58.14-8.38,73.58,11.19,26.29,94.27,35.31,144.71,13.93ZM578.19,517q-5.36,14.38-10.69,28.76c39.34,21.33,78,44.36,119,61.62,4.65,2,22.94-28.51,45.81-58ZM375.46,308,457.51,429.6l24.56-11.13c-10.71-46-21.42-92.07-33.28-143.07Zm4.14,375.47,10,19.43c19.44,1.48,53.9,8.78,55.94,3.51,15.88-40.93,25.51-84.29,37.07-126.9l-26.82-11.08Zm165.58-113.9-26.92,10.2c10,45.53,19.89,91.07,31.54,144.4l72.37-35.19Zm2.33-294.14c-10.29,52.83-19.16,98.33-28,143.84l25.19,9.46L622.6,307.28Z"/></svg>