<svg id="Layer_1" data-name="Layer 1" xmlns="http://www.w3.org/2000/svg" viewBox="0 0 1000 1000"><title>wheel-2</title><path d="M864.44,495.7c1.12,203.86-160,367.52-362.7,368.3-200.49.77-366.57-165.52-366.19-366.64C135.93,298.65,299.12,136.85,500,136,701.53,135.15,863.34,294.87,864.44,495.7ZM503,771.4c150.7-.76,272.14-122.54,272.13-272.88C775.11,350,651,226,501.82,225.4c-152-.55-274.57,123.58-273.46,277.06C229.46,653.37,350.77,772.16,503,771.4Z"/><path d="M501.4,245.62c143.75.44,254.58,112.15,253.5,255.51-1.08,142.34-116.38,256-257.26,253.58-138.44-2.37-252.16-117-252.55-254.59C244.7,359,359.36,245.19,501.4,245.62Zm-191,377.56,101.39-88.75H272.87Q295.85,588.75,310.42,623.18Zm156.41-27.31L364.77,685.36,466.83,726Zm.22-194.44V272.21L361.74,314ZM686.15,639c15.69-39.45,27.74-69.77,41.2-103.62H601.1ZM403.33,464.32c-28.81-29.62-58.06-59.67-91.93-94.47l-36.68,94.47ZM693,375.65,591.29,462.87H728.64Zm-58.24-64.91-95.86-36.32V409.2ZM536.88,726.48,626,689l-89.12-91.64Z"/></svg>