<svg id="Layer_1" data-name="Layer 1" xmlns="http://www.w3.org/2000/svg" viewBox="0 0 1000 1000"><title>wheel-1</title><path d="M495.26,864.05c-200.5-1.48-363.77-166.61-361-365.09,2.85-203,168.44-365.36,370.25-363,199,2.34,362.75,168.59,361.23,366.84C864.2,705.63,700.18,865.55,495.26,864.05ZM773,502.47c.48-152.19-118.38-272.67-270.38-274.06C348.77,227,225.69,348.92,226.11,502.28c.41,149.2,124.09,272.66,273.66,273.17C648.92,776,772.51,652.48,773,502.47Z"/><path d="M498,754.9c-142-.71-254.57-114.56-253.06-256.06C246.41,357.78,362,243.61,502.05,244.93c139.74,1.31,255.83,119.24,253.89,257.91C754,644.49,640.23,755.6,498,754.9Zm-33-483L361.47,316.69l88.77,60.73ZM361.41,687.18l102.73,41c-6.16-38.88-10.44-65.87-16-101ZM622.83,452,728,465.29,686.45,365Zm-246,100.5L270.16,537.42,315,637ZM727.3,536.88,623.77,553.35,686,638.57ZM536.88,271.81c5.14,41.5,8.69,70.12,13.46,108.63l85.11-65.76Zm100.34,415.1-88-61.23c-4.19,39.06-7.08,65.94-11,102.92ZM270.4,466.75l105.33-16-62.42-85.39C297.89,401.79,286.75,428.12,270.4,466.75Z"/></svg>