<svg id="Layer_1" data-name="Layer 1" xmlns="http://www.w3.org/2000/svg" viewBox="0 0 1000 1000"><defs><style>.cls-1{fill:#fff;}</style></defs><title>wheel-4</title><path d="M500.25,864c-204.94.1-365.18-160.62-364.57-365.68C136.27,297.43,297.91,136.21,498.93,136c202.9-.21,366.3,163.68,365.39,366.48C863.42,703.29,701.67,863.9,500.25,864Zm-1.06-636.17c-150.84.35-273.2,121.38-274.62,271.65C223.15,648.8,352.63,777.1,502.43,774.81c150.3-2.3,272.32-126.64,270.64-275.8C771.37,347.11,650.55,227.49,499.19,227.83Z"/><path class="cls-1" d="M498.47,785.34a273.23,273.23,0,0,1-110-23.25A295.59,295.59,0,0,1,236.13,608.7a270.18,270.18,0,0,1-22.06-109.32,285.16,285.16,0,0,1,285.1-282h.68c75.86,0,146.89,29,200,81.76s82.85,123.67,83.7,199.8a277,277,0,0,1-21.24,109.84A286.46,286.46,0,0,1,502.59,785.31C501.22,785.33,499.84,785.34,498.47,785.34Zm1-529.79a242.39,242.39,0,0,0-172.46,71.16c-46,45.91-71.43,107.25-71.67,172.72-.24,66.13,24.62,127.71,70,173.39s106.91,71,173.22,71.39h1.33c65.52,0,127-25.18,173.14-70.92a240.66,240.66,0,0,0,71.65-171.8c.17-135.08-109.39-245.41-244.22-245.94Z"/><path d="M499.85,227.83c151.06,0,271.52,119.49,273.22,271.18,1.68,149.16-120.34,273.5-270.64,275.8q-2,0-4,0c-148.11,0-275.31-127.36-273.9-275.36C226,349.21,348.35,228.18,499.19,227.83h.66m.09,526.88c141.2,0,255.12-112.83,255.29-253.2.17-140.86-114.07-255.9-254.68-256.46h-1c-140.69,0-254.1,113.17-254.63,254.35C244.36,641.93,355.67,754,498.55,754.71h1.39m-.07-547.88v0h-.72A296.33,296.33,0,0,0,227.59,385.36a292.61,292.61,0,0,0-24,113.92,280.79,280.79,0,0,0,22.9,113.55A306.1,306.1,0,0,0,384.22,771.71a283.67,283.67,0,0,0,114.25,24.13c1.42,0,2.86,0,4.28,0a293.14,293.14,0,0,0,114.06-24.87A298.51,298.51,0,0,0,772,612.75a287.24,287.24,0,0,0,22.05-114c-.88-78.9-31.71-152.46-86.8-207.13s-128.76-84.81-207.4-84.81Zm.07,526.88h-1.28c-63.51-.33-122.4-24.58-165.82-68.29S265.66,562.8,265.89,499.47c.23-62.68,24.59-121.39,68.59-165.33a231.94,231.94,0,0,1,165-68.09h1c129.06.51,233.92,106.12,233.76,235.43a230.23,230.23,0,0,1-68.54,164.36,233,233,0,0,1-74.42,49.68,235.51,235.51,0,0,1-91.33,18.19Z"/></svg>