<svg id="Layer_1" data-name="Layer 1" xmlns="http://www.w3.org/2000/svg" viewBox="0 0 1000 1000"><title>seat-3</title><path d="M571.58,565.34C554,515,535.68,464.94,519.25,414.25c-3.89-12-14.83-29.93,10.08-35.44,9.11-8,17.94-6.78,26.59.79C631,533.85,691.29,694.32,750.31,855"/><path d="M410.08,353.05c-69.18-1.14-131-19-170.36-81.23-18.22-28.8-27.75-63.24-10.35-94,18.33-32.46,54.91-36,88-30.81,56.24,8.85,111.31,26.55,167.72,32.72,76.37,8.37,153.74,7.31,230.27,14.58,28.64,2.73,71.06-.49,63.57,51.59-17.63,15.76-37.7,4.44-56.71,5.25-70.9-6.41-131.56,17.17-188.17,58.84C498.07,336.43,460.84,366.05,410.08,353.05Z"/><path d="M726.93,234.23l52,11.62c-12.28,37.49-44.83,27.74-71.74,30.48C626,284.61,567.85,324.13,555.92,379.6l-26.67-.8-103.64-.63c-2-4.42-3.26-10.73-.55-12C524.77,320.13,606.66,233.15,726.93,234.23Z"/><path d="M726.93,234.23c-114.21,19.16-202.58,92.41-301.32,143.94-29.23,6.51-23.39-8.68-15.53-25.12,51.88-17.54,99.66-41.88,143.09-76.23C603.81,236.76,664.26,229.16,726.93,234.23Z"/></svg>