<svg id="Layer_1" data-name="Layer 1" xmlns="http://www.w3.org/2000/svg" viewBox="0 0 1000 1000"><title>seat-1</title><path d="M591.84,747c-37.78-93.64-44.07-197-87.52-288.77-8.23-17.39-3.78-28,7.44-39.51l-1.54,1.47c38.07-12.49,56.8,4.63,62.15,41.16,13.37,91.42,82.43,160.93,97.93,252.08"/><path d="M511.76,418.72c-52.91,11.77-95,58.17-155.17,47.32-53.22-9.59-101.09-27.63-133.15-74.5-6-13.4,2.05-20.49,12-26.73,72-5.39,150.66,25.09,211.64-39.52a63.4,63.4,0,0,1,18.91-10c51.82-3.2,103.46-2,155.22-14.12,35.37-8.26,75.86-7,111.41,1.37s83.87,31.7,76.11,69.55c-7.47,36.44-54.77,11.74-84.33,9.41-75-5.94-148.86-8.17-214.13,38.7C510.22,420.19,511.76,418.72,511.76,418.72Z"/><path d="M242,373.41l-18.58,18.13c-37.47-32.44-42.65-73.18-17.34-112s65-27.57,101-13.67C359,286,417.42,284.67,466,315.28c.46,2.77.91,5.55,1.37,8.33-58.73,46.57-121.75,73-197.53,43.81C260.74,363.93,250.34,367,242,373.41Z"/><path d="M242,373.41c2.78-11.15,11.07-18.11,21.21-14.76,74.5,24.66,138.86-7.28,204.1-35C407.43,409,326,396.83,242,373.41Z"/></svg>